<?xml version="1.0" standalone="no"?>
<!DOCTYPE svg PUBLIC "-//W3C//DTD SVG 20010904//EN"
 "http://www.w3.org/TR/2001/REC-SVG-20010904/DTD/svg10.dtd">
<svg version="1.0" xmlns="http://www.w3.org/2000/svg"
 width="116.000000pt" height="97.000000pt" viewBox="0 0 116.000000 97.000000"
 preserveAspectRatio="xMidYMid meet">

<g transform="translate(0.000000,97.000000) scale(0.100000,-0.100000)"
fill="#000000" stroke="none">
<path d="M352 478 c-62 -178 -112 -326 -112 -330 0 -5 40 -8 89 -8 l89 0 18
65 19 65 90 0 91 0 20 -62 20 -63 87 -3 c100 -3 98 -6 66 84 -11 32 -58 167
-104 299 -46 132 -86 248 -90 258 -6 14 -20 17 -89 17 l-82 0 -112 -322z m224
21 c13 -46 24 -89 24 -96 0 -9 -17 -13 -55 -13 -35 0 -55 4 -55 12 0 19 53
188 58 184 2 -3 15 -42 28 -87z"/>
<path d="M910 225 l0 -86 68 3 67 3 3 83 3 82 -71 0 -70 0 0 -85z"/>
</g>
</svg>
