<svg xmlns="http://www.w3.org/2000/svg" xmlns:xlink="http://www.w3.org/1999/xlink" version="1.1" width="1000" height="1000" viewBox="0 0 1000 1000" xml:space="preserve">
<desc>Created with Fabric.js 3.5.0</desc>
<defs>
</defs>
<rect x="0" y="0" width="100%" height="100%" fill="#000000"/>
<g transform="matrix(1 0 0 1 500 157)" style="" id="436885">
		
</g>
<g transform="matrix(1 0 0 1 500 157)" style="" id="643289">
		
<path xml:space="preserve" font-family="Lato" font-size="100" font-style="normal" font-weight="bold" style="stroke: none; stroke-width: 1; stroke-dasharray: none; stroke-linecap: butt; stroke-dashoffset: 0; stroke-linejoin: miter; stroke-miterlimit: 4; is-custom-font: none; font-file-url: none; fill: rgb(0,0,0); fill-rule: nonzero; opacity: 1; white-space: pre;" d="M-253.45-40.89L-225.05 31.41L-235.45 31.41Q-237.20 31.41-238.32 30.54Q-239.45 29.66-239.95 28.36L-239.95 28.36L-245.35 13.61L-275.30 13.61L-280.70 28.36Q-281.10 29.51-282.27 30.46Q-283.45 31.41-285.15 31.41L-285.15 31.41L-295.60 31.41L-267.20-40.89L-253.45-40.89ZM-263.05-19.84L-271.85 4.11L-248.80 4.11L-257.60-19.94Q-258.20-21.54-258.92-23.71Q-259.65-25.89-260.35-28.44L-260.35-28.44Q-261.05-25.89-261.72-23.69Q-262.40-21.49-263.05-19.84L-263.05-19.84ZM-174.65 31.41L-182.20 31.41Q-184.60 31.41-185.35 29.16L-185.35 29.16L-186.35 24.21Q-187.95 26.01-189.70 27.46Q-191.45 28.91-193.47 29.96Q-195.50 31.01-197.82 31.59Q-200.15 32.16-202.85 32.16L-202.85 32.16Q-207.05 32.16-210.55 30.41Q-214.05 28.66-216.57 25.34Q-219.10 22.01-220.47 17.11Q-221.85 12.21-221.85 5.91L-221.85 5.91Q-221.85 0.21-220.30-4.69Q-218.75-9.59-215.85-13.19Q-212.95-16.79-208.90-18.81Q-204.85-20.84-199.80-20.84L-199.80-20.84Q-195.50-20.84-192.45-19.46Q-189.40-18.09-187.00-15.79L-187.00-15.79L-187.00-42.89L-174.65-42.89L-174.65 31.41ZM-198.65 22.36L-198.65 22.36Q-194.80 22.36-192.10 20.76Q-189.40 19.16-187.00 16.21L-187.00 16.21L-187.00-6.79Q-189.10-9.34-191.57-10.39Q-194.05-11.44-196.90-11.44L-196.90-11.44Q-199.70-11.44-201.97-10.39Q-204.25-9.34-205.82-7.21Q-207.40-5.09-208.25-1.81Q-209.10 1.46-209.10 5.91L-209.10 5.91Q-209.10 10.41-208.37 13.54Q-207.65 16.66-206.30 18.64Q-204.95 20.61-203.00 21.49Q-201.05 22.36-198.65 22.36ZM-117.65 31.41L-125.20 31.41Q-127.60 31.41-128.35 29.16L-128.35 29.16L-129.35 24.21Q-130.95 26.01-132.70 27.46Q-134.45 28.91-136.47 29.96Q-138.50 31.01-140.82 31.59Q-143.15 32.16-145.85 32.16L-145.85 32.16Q-150.05 32.16-153.55 30.41Q-157.05 28.66-159.57 25.34Q-162.10 22.01-163.47 17.11Q-164.85 12.21-164.85 5.91L-164.85 5.91Q-164.85 0.21-163.30-4.69Q-161.75-9.59-158.85-13.19Q-155.95-16.79-151.90-18.81Q-147.85-20.84-142.80-20.84L-142.80-20.84Q-138.50-20.84-135.45-19.46Q-132.40-18.09-130.00-15.79L-130.00-15.79L-130.00-42.89L-117.65-42.89L-117.65 31.41ZM-141.65 22.36L-141.65 22.36Q-137.80 22.36-135.10 20.76Q-132.40 19.16-130.00 16.21L-130.00 16.21L-130.00-6.79Q-132.10-9.34-134.57-10.39Q-137.05-11.44-139.90-11.44L-139.90-11.44Q-142.70-11.44-144.97-10.39Q-147.25-9.34-148.82-7.21Q-150.40-5.09-151.25-1.81Q-152.10 1.46-152.10 5.91L-152.10 5.91Q-152.10 10.41-151.37 13.54Q-150.65 16.66-149.30 18.64Q-147.95 20.61-146.00 21.49Q-144.05 22.36-141.65 22.36ZM-23.30-40.89L-23.30 31.41L-36.85 31.41L-36.85-0.19L-70.75-0.19L-70.75 31.41L-84.30 31.41L-84.30-40.89L-70.75-40.89L-70.75-9.79L-36.85-9.79L-36.85-40.89L-23.30-40.89ZM11.80-20.69L11.80-20.69Q16.65-20.69 20.73-19.14Q24.80-17.59 27.75-14.61Q30.70-11.64 32.35-7.31Q34.00-2.99 34.00 2.56L34.00 2.56Q34.00 3.96 33.88 4.89Q33.75 5.81 33.43 6.34Q33.10 6.86 32.55 7.09Q32.00 7.31 31.15 7.31L31.15 7.31L-0.55 7.31Q0.00 15.21 3.70 18.91Q7.40 22.61 13.50 22.61L13.50 22.61Q16.50 22.61 18.68 21.91Q20.85 21.21 22.48 20.36Q24.10 19.51 25.33 18.81Q26.55 18.11 27.70 18.11L27.70 18.11Q28.45 18.11 29.00 18.41Q29.55 18.71 29.95 19.26L29.95 19.26L33.55 23.76Q31.50 26.16 28.95 27.79Q26.40 29.41 23.63 30.39Q20.85 31.36 17.98 31.76Q15.10 32.16 12.40 32.16L12.40 32.16Q7.05 32.16 2.45 30.39Q-2.15 28.61-5.55 25.14Q-8.95 21.66-10.90 16.54Q-12.85 11.41-12.85 4.66L-12.85 4.66Q-12.85-0.59-11.15-5.21Q-9.45-9.84-6.27-13.26Q-3.10-16.69 1.48-18.69Q6.05-20.69 11.80-20.69ZM12.05-11.84L12.05-11.84Q6.65-11.84 3.60-8.79Q0.55-5.74-0.30-0.14L-0.30-0.14L22.90-0.14Q22.90-2.54 22.25-4.66Q21.60-6.79 20.25-8.39Q18.90-9.99 16.85-10.91Q14.80-11.84 12.05-11.84ZM84.25-0.99L84.25 31.41L78.70 31.41Q76.95 31.41 75.95 30.89Q74.95 30.36 74.45 28.76L74.45 28.76L73.35 25.11Q71.40 26.86 69.53 28.19Q67.65 29.51 65.65 30.41Q63.65 31.31 61.40 31.76Q59.15 32.21 56.40 32.21L56.40 32.21Q53.15 32.21 50.40 31.34Q47.65 30.46 45.68 28.71Q43.70 26.96 42.60 24.36Q41.50 21.76 41.50 18.31L41.50 18.31Q41.50 15.41 43.03 12.59Q44.55 9.76 48.10 7.49Q51.65 5.21 57.55 3.71Q63.45 2.21 72.20 2.01L72.20 2.01L72.20-0.99Q72.20-6.14 70.03-8.61Q67.85-11.09 63.70-11.09L63.70-11.09Q60.70-11.09 58.70-10.39Q56.70-9.69 55.23-8.81Q53.75-7.94 52.50-7.24Q51.25-6.54 49.75-6.54L49.75-6.54Q48.50-6.54 47.60-7.19Q46.70-7.84 46.15-8.79L46.15-8.79L43.90-12.74Q52.75-20.84 65.25-20.84L65.25-20.84Q69.75-20.84 73.28-19.36Q76.80-17.89 79.25-15.26Q81.70-12.64 82.98-8.99Q84.25-5.34 84.25-0.99L84.25-0.99ZM60.25 23.71L60.25 23.71Q62.15 23.71 63.75 23.36Q65.35 23.01 66.78 22.31Q68.20 21.61 69.53 20.59Q70.85 19.56 72.20 18.16L72.20 18.16L72.20 9.51Q66.80 9.76 63.18 10.44Q59.55 11.11 57.35 12.16Q55.15 13.21 54.23 14.61Q53.30 16.01 53.30 17.66L53.30 17.66Q53.30 20.91 55.23 22.31Q57.15 23.71 60.25 23.71ZM140.05 31.41L132.50 31.41Q130.10 31.41 129.35 29.16L129.35 29.16L128.35 24.21Q126.75 26.01 125.00 27.46Q123.25 28.91 121.23 29.96Q119.20 31.01 116.88 31.59Q114.55 32.16 111.85 32.16L111.85 32.16Q107.65 32.16 104.15 30.41Q100.65 28.66 98.13 25.34Q95.60 22.01 94.23 17.11Q92.85 12.21 92.85 5.91L92.85 5.91Q92.85 0.21 94.40-4.69Q95.95-9.59 98.85-13.19Q101.75-16.79 105.80-18.81Q109.85-20.84 114.90-20.84L114.90-20.84Q119.20-20.84 122.25-19.46Q125.30-18.09 127.70-15.79L127.70-15.79L127.70-42.89L140.05-42.89L140.05 31.41ZM116.05 22.36L116.05 22.36Q119.90 22.36 122.60 20.76Q125.30 19.16 127.70 16.21L127.70 16.21L127.70-6.79Q125.60-9.34 123.13-10.39Q120.65-11.44 117.80-11.44L117.80-11.44Q115.00-11.44 112.73-10.39Q110.45-9.34 108.88-7.21Q107.30-5.09 106.45-1.81Q105.60 1.46 105.60 5.91L105.60 5.91Q105.60 10.41 106.33 13.54Q107.05 16.66 108.40 18.64Q109.75 20.61 111.70 21.49Q113.65 22.36 116.05 22.36ZM154.20-42.89L166.55-42.89L166.55 31.41L154.20 31.41L154.20-42.89ZM181.30-19.89L193.65-19.89L193.65 31.41L181.30 31.41L181.30-19.89ZM195.50-34.84L195.50-34.84Q195.50-33.24 194.85-31.84Q194.20-30.44 193.13-29.39Q192.05-28.34 190.60-27.71Q189.15-27.09 187.50-27.09L187.50-27.09Q185.90-27.09 184.48-27.71Q183.05-28.34 182.00-29.39Q180.95-30.44 180.33-31.84Q179.70-33.24 179.70-34.84L179.70-34.84Q179.70-36.49 180.33-37.94Q180.95-39.39 182.00-40.44Q183.05-41.49 184.48-42.11Q185.90-42.74 187.50-42.74L187.50-42.74Q189.15-42.74 190.60-42.11Q192.05-41.49 193.13-40.44Q194.20-39.39 194.85-37.94Q195.50-36.49 195.50-34.84ZM219.95 31.41L207.60 31.41L207.60-19.89L215.15-19.89Q217.55-19.89 218.30-17.64L218.30-17.64L219.15-13.59Q220.70-15.19 222.43-16.49Q224.15-17.79 226.08-18.74Q228.00-19.69 230.20-20.19Q232.40-20.69 235.00-20.69L235.00-20.69Q239.20-20.69 242.45-19.26Q245.70-17.84 247.88-15.26Q250.05-12.69 251.18-9.11Q252.30-5.54 252.30-1.24L252.30-1.24L252.30 31.41L239.95 31.41L239.95-1.24Q239.95-5.94 237.78-8.51Q235.60-11.09 231.25-11.09L231.25-11.09Q228.05-11.09 225.25-9.64Q222.45-8.19 219.95-5.69L219.95-5.69L219.95 31.41ZM285.65-20.69L285.65-20.69Q290.50-20.69 294.58-19.14Q298.65-17.59 301.60-14.61Q304.55-11.64 306.20-7.31Q307.85-2.99 307.85 2.56L307.85 2.56Q307.85 3.96 307.73 4.89Q307.60 5.81 307.28 6.34Q306.95 6.86 306.40 7.09Q305.85 7.31 305.00 7.31L305.00 7.31L273.30 7.31Q273.85 15.21 277.55 18.91Q281.25 22.61 287.35 22.61L287.35 22.61Q290.35 22.61 292.53 21.91Q294.70 21.21 296.33 20.36Q297.95 19.51 299.18 18.81Q300.40 18.11 301.55 18.11L301.55 18.11Q302.30 18.11 302.85 18.41Q303.40 18.71 303.80 19.26L303.80 19.26L307.40 23.76Q305.35 26.16 302.80 27.79Q300.25 29.41 297.48 30.39Q294.70 31.36 291.83 31.76Q288.95 32.16 286.25 32.16L286.25 32.16Q280.90 32.16 276.30 30.39Q271.70 28.61 268.30 25.14Q264.90 21.66 262.95 16.54Q261.00 11.41 261.00 4.66L261.00 4.66Q261.00-0.59 262.70-5.21Q264.40-9.84 267.58-13.26Q270.75-16.69 275.33-18.69Q279.90-20.69 285.65-20.69ZM285.90-11.84L285.90-11.84Q280.50-11.84 277.45-8.79Q274.40-5.74 273.55-0.14L273.55-0.14L296.75-0.14Q296.75-2.54 296.10-4.66Q295.45-6.79 294.10-8.39Q292.75-9.99 290.70-10.91Q288.65-11.84 285.90-11.84Z"/></g>
<g transform="matrix(1 0 0 1 561.8839 476.1495)" style="" id="975642">
		
<path xml:space="preserve" font-family="Acme" font-size="256" font-style="normal" font-weight="normal" style="stroke: none; stroke-width: 1; stroke-dasharray: none; stroke-linecap: butt; stroke-dashoffset: 0; stroke-linejoin: miter; stroke-miterlimit: 4; is-custom-font: none; font-file-url: none; fill: rgb(255,255,255); fill-rule: nonzero; opacity: 1; white-space: pre;" d="M-399.74 76.07L-436.61 81.70L-449.15 31.78L-510.34 31.78L-523.90 80.42L-556.67 77.86L-534.14 15.65L-499.84-94.43L-454.02-97.76L-420.99 11.81L-399.74 76.07ZM-456.83 4.64L-477.06-64.48L-480.38-64.48L-502.40 4.64L-456.83 4.64ZM-306.82 15.65Q-306.82-2.01-309.89-7.90Q-312.96-13.79-324.22-13.79Q-335.49-13.79-349.82-4.83L-349.82-4.83L-349.82 13.86L-347.01 74.02L-381.31 80.42L-378.24 18.21Q-379.26-16.09-383.87-43.23L-383.87-43.23L-352.90-49.88Q-351.10-35.04-350.34-20.96L-350.34-20.96Q-346.50-26.08-341.63-31.07Q-336.77-36.06-326.27-42.33Q-315.78-48.60-305.02-48.60Q-294.27-48.60-286.85-41.69Q-279.42-34.78-277.38-22.75L-277.38-22.75Q-256.13-48.60-234.37-48.60L-234.37-48.60Q-220.80-48.60-212.86-39.52Q-204.93-30.43-204.93-14.81L-204.93-14.81L-206.46 13.86L-203.65 75.30L-238.21 81.70L-235.14 15.65Q-235.14-2.01-238.21-7.90Q-241.28-13.79-252.29-13.79Q-263.30-13.79-277.12-5.34L-277.12-5.34L-278.14 13.86L-275.33 75.30L-309.89 81.70L-306.82 15.65ZM-107.65-48.86L-107.65-48.86Q-90.50-48.86-79.74-34.01Q-68.99-19.16-68.99 4.13L-68.99 4.13Q-68.99 37.67-86.53 59.04Q-104.06 80.42-131.97 80.42L-131.97 80.42Q-144.77 80.42-174.98 76.32L-174.98 76.32L-172.42 18.21L-175.49-111.32L-140.42-117.72L-143.74-51.68L-143.74-24.03Q-140.93-28.12-136.83-32.73Q-132.74-37.34-124.03-43.10Q-115.33-48.86-107.65-48.86ZM-117.63-15.58L-117.63-15.58Q-129.41-15.58-143.74-8.41L-143.74-8.41L-143.74 13.86L-142.21 51.49Q-131.46 52.77-121.98 52.77L-121.98 52.77Q-97.41 52.77-97.41 18.60Q-97.41-15.58-117.63-15.58ZM-50.56-43.23L-50.56-43.23L-19.58-49.88Q-17.28-30.17-16.51-12.51L-16.51-12.51Q6.78-48.60 27.26-48.60L27.26-48.60L24.45-8.67Q9.60-8.67 1.02-5.98Q-7.55-3.29-16.51 4.64L-16.51 4.64L-16.51 13.86L-13.70 74.02L-48.00 80.42L-44.93 18.21Q-45.95-16.09-50.56-43.23ZM43.39-43.48L77.70-49.88L74.62 13.86L77.44 74.02L43.14 80.42L46.21 18.21L43.39-43.48ZM41.60-87.39Q41.60-95.96 48.26-102.75Q54.91-109.53 63.62-109.53Q72.32-109.53 76.93-104.80Q81.54-100.06 81.54-90.59Q81.54-81.12 75.01-74.33Q68.48-67.55 59.90-67.55Q51.33-67.55 46.46-73.18Q41.60-78.81 41.60-87.39ZM144.51 56.61L144.51 56.61Q157.82 56.61 157.82 44.84L157.82 44.84Q157.82 40.74 152.06 37.16Q146.30 33.57 137.98 29.99Q129.66 26.40 121.34 21.92Q113.02 17.44 107.26 9.51Q101.50 1.57 101.50-8.67L101.50-8.67Q101.50-25.82 116.61-38.62Q131.71-51.42 151.42-51.42L151.42-51.42Q160.64-51.42 169.47-49.24Q178.30-47.07 186.50-42.46L186.50-42.46L169.34-11.23Q167.55-12.76 164.74-15.07Q161.92-17.37 154.11-21.08Q146.30-24.80 140.29-24.80Q134.27-24.80 131.07-22.11Q127.87-19.42 127.87-14.68Q127.87-9.95 136.70-5.21Q145.54-0.48 156.03 3.49Q166.53 7.46 175.36 16.55Q184.19 25.64 184.19 38.18L184.19 38.18Q184.19 56.10 169.47 69.67Q154.75 83.24 135.55 83.24L135.55 83.24Q123.26 83.24 112.64 77.86Q102.02 72.48 97.41 67.11L97.41 67.11L92.80 61.73L113.02 38.18Q114.56 40.23 117.38 43.30Q120.19 46.37 128.51 51.49Q136.83 56.61 144.51 56.61ZM281.47 15.65Q281.47-2.01 278.40-7.90Q275.33-13.79 264.06-13.79Q252.80-13.79 238.46-4.83L238.46-4.83L238.46 13.86L241.28 74.02L206.72 80.42L209.79 18.21L206.72-111.32L241.79-117.72L238.46-51.42L238.46-21.47Q242.30-26.59 247.17-31.45Q252.03-36.32 262.27-42.46Q272.51-48.60 284.16-48.60Q295.81-48.60 303.74-39.52Q311.68-30.43 311.68-14.81L311.68-14.81L310.14 13.86L312.96 75.30L278.40 81.70L281.47 15.65ZM366.72 80.42Q351.62 80.42 342.02 70.82Q332.42 61.22 332.42 44.96Q332.42 28.71 347.26 16.80Q362.11 4.90 383.36 4.90L383.36 4.90L400.77 4.90L400.77 0.55Q400.77-12.00 395.65-16.60Q390.53-21.21 376.45-21.21L376.45-21.21Q370.56-21.21 362.50-18.78Q354.43-16.35 344.45-11.23L344.45-11.23L337.02-31.45Q348.03-39.13 363.78-45.28Q379.52-51.42 389.76-51.42L389.76-51.42Q429.95-51.42 429.95-12.51L429.95-12.51L429.95 37.67Q429.95 52.00 438.91 69.67L438.91 69.67L411.78 81.19Q405.38 68.90 402.30 59.17L402.30 59.17Q388.22 80.42 366.72 80.42L366.72 80.42ZM377.47 54.31L377.47 54.31Q387.71 54.31 400.77 43.81L400.77 43.81L400.77 26.66Q387.20 23.59 378.75 23.59L378.75 23.59Q362.62 23.59 362.62 37.92L362.62 37.92Q362.62 45.35 366.72 49.83Q370.82 54.31 377.47 54.31ZM507.26 54.31L507.26 54.31Q514.69 54.31 522.88 50.47Q531.07 46.63 535.68 42.79L535.68 42.79L540.29 38.95L552.06 53.28Q549.50 57.64 544.13 63.27Q538.75 68.90 533.25 72.87Q527.74 76.84 518.66 80.04Q509.57 83.24 499.84 83.24L499.84 83.24Q479.10 83.24 466.05 67.49Q452.99 51.75 452.99 26.92L452.99 26.92Q452.99-4.32 471.17-27.87Q489.34-51.42 513.66-51.42L513.66-51.42Q532.35-51.42 542.72-40.92Q553.09-30.43 553.09-11.48L553.09-11.48Q553.09-0.22 549.25 14.12L549.25 14.12L544.13 19.49L480.13 25.38Q484.48 54.31 507.26 54.31ZM507.26-25.05L507.26-25.05Q496.00-25.05 488.32-15.96Q480.64-6.88 479.36 7.20L479.36 7.20L522.88 1.83Q523.65-4.06 523.65-7.90L523.65-7.90Q523.65-25.05 507.26-25.05Z"/></g>
</svg>